HIERARCHY
ROOT hip
{
  OFFSET 0 0 0
  CHANNELS 6 Xposition Yposition Zposition Zrotation Yrotation Xrotation
  JOINT abdomen
  {
    OFFSET 0 20.6881 -0.73152
    CHANNELS 3 Zrotation Xrotation Yrotation
    JOINT chest
    {
      OFFSET 0 11.7043 -0.48768
      CHANNELS 3 Zrotation Xrotation Yrotation
      JOINT neck
      {
        OFFSET 0 22.1894 -2.19456
        CHANNELS 3 Zrotation Xrotation Yrotation
        JOINT head
        {
          OFFSET -0.24384 7.07133 1.2192
          CHANNELS 3 Zrotation Xrotation Yrotation
          JOINT leftEye
          {
            OFFSET 4.14528 8.04674 8.04672
            CHANNELS 3 Zrotation Xrotation Yrotation
            End Site
            {
              OFFSET 1 0 0
            }
          }
          JOINT rightEye
          {
            OFFSET -3.6576 8.04674 8.04672
            CHANNELS 3 Zrotation Xrotation Yrotation
            End Site
            {
              OFFSET 1 0 0
            }
          }
        }
      }
      JOINT rCollar
      {
        OFFSET -2.68224 19.2634 -4.8768
        CHANNELS 3 Zrotation Xrotation Yrotation
        JOINT rShldr
        {
          OFFSET -8.77824 -1.95073 1.46304
          CHANNELS 3 Zrotation Xrotation Yrotation
          JOINT rForeArm
          {
            OFFSET -28.1742 -1.7115 0.48768
            CHANNELS 3 Zrotation Xrotation Yrotation
            JOINT rHand
            {
              OFFSET -22.5879 0.773209 7.07136
              CHANNELS 3 Zrotation Xrotation Yrotation
              JOINT rThumb1
              {
                OFFSET -1.2192 -0.487915 3.41376
                CHANNELS 3 Zrotation Xrotation Yrotation
                JOINT rThumb2
                {
                  OFFSET -3.37035 -0.52449 3.41376
                  CHANNELS 3 Zrotation Xrotation Yrotation
                  End Site
                  {
                    OFFSET -1.78271 -1.18214 1.43049
                  }
                }
              }
              JOINT rIndex1
              {
                OFFSET -7.75947 0.938293 5.60832
                CHANNELS 3 Zrotation Xrotation Yrotation
                JOINT rIndex2
                {
                  OFFSET -2.54057 -0.884171 1.56538
                  CHANNELS 3 Zrotation Xrotation Yrotation
                  End Site
                  {
                    OFFSET -1.62519 -0.234802 1.16502
                  }
                }
              }
              JOINT rMid1
              {
                OFFSET -8.24714 1.18213 3.41376
                CHANNELS 3 Zrotation Xrotation Yrotation
                JOINT rMid2
                {
                  OFFSET -3.10165 -0.590103 1.0647
                  CHANNELS 3 Zrotation Xrotation Yrotation
                  End Site
                  {
                    OFFSET -2.48547 -0.328903 0.83742
                  }
                }
              }
              JOINT rRing1
              {
                OFFSET -8.82822 0.546677 1.51678
                CHANNELS 3 Zrotation Xrotation Yrotation
                JOINT rRing2
                {
                  OFFSET -2.60934 -0.819778 -0.0198488
                  CHANNELS 3 Zrotation Xrotation Yrotation
                  End Site
                  {
                    OFFSET -2.33842 -0.294052 0.168128
                  }
                }
              }
              JOINT rPinky1
              {
                OFFSET -8.27202 -0.0477905 -0.4584
                CHANNELS 3 Zrotation Xrotation Yrotation
                JOINT rPinky2
                {
                  OFFSET -1.82734 -0.647385 -0.700984
                  CHANNELS 3 Zrotation Xrotation Yrotation
                  End Site
                  {
                    OFFSET -1.69225 -0.51767 -0.607171
                  }
                }
              }
            }
          }
        }
      }
      JOINT lCollar
      {
        OFFSET 2.68224 19.2634 -4.8768
        CHANNELS 3 Zrotation Xrotation Yrotation
        JOINT lShldr
        {
          OFFSET 8.77824 -1.95073 1.46304
          CHANNELS 3 Zrotation Xrotation Yrotation
          JOINT lForeArm
          {
            OFFSET 28.1742 -1.7115 0.48768
            CHANNELS 3 Zrotation Xrotation Yrotation
            JOINT lHand
            {
              OFFSET 22.5879 0.773209 7.07136
              CHANNELS 3 Zrotation Xrotation Yrotation
              JOINT lThumb1
              {
                OFFSET 1.2192 -0.487915 3.41376
                CHANNELS 3 Zrotation Xrotation Yrotation
                JOINT lThumb2
                {
                  OFFSET 3.37035 -0.52449 3.41376
                  CHANNELS 3 Zrotation Xrotation Yrotation
                  End Site
                  {
                    OFFSET 1.78271 -1.18214 1.43049
                  }
                }
              }
              JOINT lIndex1
              {
                OFFSET 7.75947 0.938293 5.60832
                CHANNELS 3 Zrotation Xrotation Yrotation
                JOINT lIndex2
                {
                  OFFSET 2.54057 -0.884171 1.56538
                  CHANNELS 3 Zrotation Xrotation Yrotation
                  End Site
                  {
                    OFFSET 1.62519 -0.234802 1.16502
                  }
                }
              }
              JOINT lMid1
              {
                OFFSET 8.24714 1.18213 3.41376
                CHANNELS 3 Zrotation Xrotation Yrotation
                JOINT lMid2
                {
                  OFFSET 3.10165 -0.590103 1.0647
                  CHANNELS 3 Zrotation Xrotation Yrotation
                  End Site
                  {
                    OFFSET 2.48547 -0.328903 0.83742
                  }
                }
              }
              JOINT lRing1
              {
                OFFSET 8.82822 0.546677 1.51678
                CHANNELS 3 Zrotation Xrotation Yrotation
                JOINT lRing2
                {
                  OFFSET 2.60934 -0.819778 -0.0198488
                  CHANNELS 3 Zrotation Xrotation Yrotation
                  End Site
                  {
                    OFFSET 2.33842 -0.294052 0.168128
                  }
                }
              }
              JOINT lPinky1
              {
                OFFSET 8.27202 -0.0477905 -0.4584
                CHANNELS 3 Zrotation Xrotation Yrotation
                JOINT lPinky2
                {
                  OFFSET 1.82734 -0.647385 -0.700984
                  CHANNELS 3 Zrotation Xrotation Yrotation
                  End Site
                  {
                    OFFSET 1.69225 -0.51767 -0.607171
                  }
                }
              }
            }
          }
        }
      }
    }
  }
  JOINT rButtock
  {
    OFFSET -8.77824 4.35084 1.2192
    CHANNELS 3 Zrotation Xrotation Yrotation
    JOINT rThigh
    {
      OFFSET 0 -1.70687 -2.19456
      CHANNELS 3 Zrotation Xrotation Yrotation
      JOINT rShin
      {
        OFFSET 0 -36.8199 0.73152
        CHANNELS 3 Zrotation Xrotation Yrotation
        JOINT rFoot
        {
          OFFSET 0.73152 -45.1104 -5.12064
          CHANNELS 3 Zrotation Xrotation Yrotation
          End Site
          {
            OFFSET -1.1221 -3.69964 12.103
          }
        }
      }
    }
  }
  JOINT lButtock
  {
    OFFSET 8.77824 4.35084 1.2192
    CHANNELS 3 Zrotation Xrotation Yrotation
    JOINT lThigh
    {
      OFFSET 0 -1.70687 -2.19456
      CHANNELS 3 Zrotation Xrotation Yrotation
      JOINT lShin
      {
        OFFSET 0 -36.8199 0.73152
        CHANNELS 3 Zrotation Xrotation Yrotation
        JOINT lFoot
        {
          OFFSET -0.73152 -45.1104 -5.12064
          CHANNELS 3 Zrotation Xrotation Yrotation
          End Site
          {
            OFFSET 1.1221 -3.69964 12.103
          }
        }
      }
    }
  }
}
MOTION
Frames:	7
Frame Time:	0.00833333
48.3313 82.1808 0.403708 0.0 0.0 0.0 1.67539 -0.0024954 0.0455951 0.461935 0.00238742 0.0799916 1.06802e-14 -7.95139e-16 -6.4605e-16 3.20385e-14 3.18055e-15 -1.96455e-15 -0.0 0.0 0.0 -0.0 0.0 0.0 5.46539e-15 -6.7944e-18 -1.49089e-16 1.14111e-13 -1.86361e-16 -5.56597e-15 1.93159e-12 -5.77668e-13 -1.33583e-13 2.2067e-11 5.42185e-13 -1.33265e-12 5.20544e-11 -7.93083e-14 -3.18692e-12 8.98853e-11 -1.39944e-13 -5.49759e-12 5.20597e-11 -7.79236e-14 -3.19328e-12 7.73091 5.47488 0.417314 5.20541e-11 -7.91163e-14 -3.18055e-12 2.90554 0.965183 0.102902 5.20656e-11 -7.87187e-14 -3.18135e-12 10.2786 0.731801 0.0259123 5.205e-11 -7.91163e-14 -3.17101e-12 2.22167 -0.733487 -0.20892 5.36872e-15 -5.62964e-18 -4.47265e-16 1.09786e-13 -2.67117e-16 -7.35503e-15 1.92876e-12 5.65542e-13 -1.62208e-13 2.20615e-11 -6.1417e-13 -1.30085e-12 5.20429e-11 -1.04141e-13 -3.18055e-12 8.98845e-11 -1.81292e-13 -5.49441e-12 5.20375e-11 -1.0138e-13 -3.16783e-12 -7.73091 5.47488 -0.417314 5.20429e-11 -1.03865e-13 -3.18374e-12 -2.90554 0.965183 -0.102902 5.2032e-11 -1.03666e-13 -3.18294e-12 -10.2786 0.731801 -0.0259123 5.20426e-11 -1.03766e-13 -3.19328e-12 -2.22167 -0.733487 0.20892 -2.03217e-16 0.0 -3.88251e-19 1.77093 -6.79377 -0.168 0.00306315 6.74214 0.0830413 -0.520087 0.0465367 0.0600048 2.03217e-16 0.0 3.88251e-19 0.777555 -1.92427 0.00416314 0.00908882 -2.07858 0.0749617 0.493603 3.99766 -0.137576
48.8995 81.3428 2.41162 1.9728 0.0191 -9.2828 1.11131 -0.0284392 -0.342462 1.37616 0.276455 -0.0136471 -1.92793 1.74439 -1.46471 1.93376 -2.24491 -2.45775 -0.0 0.0 0.0 -0.0 0.0 0.0 1.94782e-14 5.30587e-14 -4.36899e-15 6.98283 -5.42836 18.8344 -2.90481 -1.13521 4.71787 0.115961 7.56604 1.03016 4.03637e-11 7.89526e-12 -1.64415e-11 7.00959e-11 1.24846e-11 -2.86935e-11 4.03684e-11 7.89587e-12 -1.64496e-11 7.73091 5.47488 0.417314 4.03636e-11 7.89729e-12 -1.64367e-11 2.90554 0.965183 0.102902 4.03745e-11 7.895e-12 -1.64368e-11 10.2786 0.731801 0.0259123 4.03588e-11 7.89473e-12 -1.64291e-11 2.22167 -0.733487 -0.20892 1.94282e-14 5.30584e-14 -4.58098e-15 -4.85142 2.68474 -17.8009 4.26058 -1.94401 -6.64579 -0.0446943 -4.6925 0.651525 1.56477e-10 -1.84067e-10 -2.92057e-12 2.69023e-10 -3.24324e-10 -3.32024e-12 1.56472e-10 -1.84062e-10 -2.90683e-12 -7.73091 5.47488 -0.417314 1.56478e-10 -1.8407e-10 -2.92273e-12 -2.90554 0.965183 -0.102902 1.56466e-10 -1.84069e-10 -2.9194e-12 -10.2786 0.731801 -0.0259123 1.56476e-10 -1.8407e-10 -2.92668e-12 -2.22167 -0.733487 0.20892 -2.03217e-16 0.0 -3.88251e-19 -0.962589 -9.74365 -1.79421 0.0323394 19.4334 0.301563 -1.61379 -6.75309 -4.94522 2.03217e-16 0.0 3.88251e-19 3.55449 -6.8224 1.63347 -0.0355396 12.7374 -0.146803 1.0454 -1.55987 3.19632
48.859 81.2977 2.45907 1.8188 -0.0546 -9.2982 0.519201 -0.0550195 -0.756519 2.34507 0.565742 -0.113772 -3.87585 3.58468 -3.01635 3.77135 -4.60489 -5.06451 -0.0 0.0 0.0 -0.0 0.0 0.0 3.4679e-14 1.06249e-13 -8.74342e-15 17.9815 -9.19895 39.1671 -5.77407 -2.31018 9.71285 -0.0674603 15.5555 2.18055 8.03075e-11 1.32531e-11 -1.69842e-11 1.39802e-10 1.52681e-11 -3.11552e-11 8.03115e-11 1.32529e-11 -1.69941e-11 7.73091 5.47488 0.417314 8.03077e-11 1.32571e-11 -1.6981e-11 2.90554 0.965183 0.102902 8.03181e-11 1.32518e-11 -1.69803e-11 10.2786 0.731801 0.0259123 8.03023e-11 1.32517e-11 -1.69756e-11 2.22167 -0.733487 -0.20892 3.46805e-14 1.06247e-13 -8.86145e-15 -8.29524 4.65101 -36.7157 8.2785 -3.91241 -13.6968 0.0256266 -9.65467 1.35546 2.1631e-10 -4.4522e-10 2.68497e-11 3.70657e-10 -7.78515e-10 4.94277e-11 2.16306e-10 -4.45212e-10 2.68646e-11 -7.73091 5.47488 -0.417314 2.16312e-10 -4.45227e-10 2.68487e-11 -2.90554 0.965183 -0.102902 2.163e-10 -4.45225e-10 2.68548e-11 -10.2786 0.731801 -0.0259123 2.1631e-10 -4.45226e-10 2.68508e-11 -2.22167 -0.733487 0.20892 -2.03217e-16 0.0 -3.88251e-19 -4.03514 -12.8468 -3.5468 -0.0619066 32.8426 0.592613 -4.09382 -13.7773 -10.4792 2.03217e-16 0.0 3.88251e-19 6.80196 -11.9857 3.40905 0.0556685 28.3948 -0.424787 2.33382 -7.38661 6.7718
48.8367 81.2684 2.51761 1.7885 -0.0698 -9.3504 -0.0179099 -0.0803129 -1.11858 3.20729 0.824585 -0.200945 -5.51557 5.21946 -4.41041 5.22192 -6.68501 -7.41831 -0.0 0.0 0.0 -0.0 0.0 0.0 4.75037e-14 1.5919e-13 -1.28088e-14 29.8364 -9.45844 57.4405 -8.15913 -3.31339 14.175 -0.525954 22.6675 3.32028 1.69822e-11 2.38444e-11 -4.29506e-11 3.05172e-11 3.77337e-11 -7.50854e-11 1.69857e-11 2.38434e-11 -4.29622e-11 7.73091 5.47488 0.417314 1.69827e-11 2.38501e-11 -4.2949e-11 2.90554 0.965183 0.102902 1.69924e-11 2.38424e-11 -4.29476e-11 10.2786 0.731801 0.0259123 1.69766e-11 2.38424e-11 -4.29454e-11 2.22167 -0.733487 -0.20892 4.75472e-14 1.59187e-13 -1.28484e-14 -10.336 5.03822 -53.6418 11.4539 -5.51884 -20.0226 0.194434 -14.0701 2.0083 3.65344e-10 -5.51993e-10 -2.4006e-12 6.27299e-10 -9.72608e-10 1.0281e-12 3.65341e-10 -5.51983e-10 -2.38482e-12 -7.73091 5.47488 -0.417314 3.65347e-10 -5.52002e-10 -2.40072e-12 -2.90554 0.965183 -0.102902 3.65334e-10 -5.52e-10 -2.39232e-12 -10.2786 0.731801 -0.0259123 3.65344e-10 -5.52002e-10 -2.39349e-12 -2.22167 -0.733487 0.20892 -2.03217e-16 0.0 -3.88251e-19 -6.94949 -15.597 -5.16187 -0.311375 44.8124 0.970131 -7.50586 -19.716 -15.8008 2.03217e-16 0.0 3.88251e-19 9.97483 -16.5655 5.06825 0.312013 42.3669 -0.784204 4.11367 -12.4919 10.1014
48.839 81.2486 2.57991 1.8442 -0.0246 -9.4167 -0.416821 -0.102402 -1.35063 3.80084 1.00732 -0.255716 -6.57393 6.35346 -5.39503 6.11308 -8.11243 -9.0969 -0.0 0.0 0.0 -0.0 0.0 0.0 5.43884e-14 2.11509e-13 -1.61016e-14 38.3911 -7.51774 69.8327 -9.72388 -3.97523 17.2847 -1.03658 27.6145 4.2161 -3.04516e-10 4.75195e-11 -1.32476e-10 -5.26243e-10 1.09405e-10 -2.22687e-10 -3.04513e-10 4.75175e-11 -1.32489e-10 7.73091 5.47488 0.417314 -3.04515e-10 4.75261e-11 -1.32476e-10 2.90554 0.965183 0.102902 -3.04506e-10 4.75174e-11 -1.32474e-10 10.2786 0.731801 0.0259123 -3.04522e-10 4.75175e-11 -1.32473e-10 2.22167 -0.733487 -0.20892 5.44498e-14 2.11505e-13 -1.61016e-14 -11.4787 4.34466 -65.3979 13.45 -6.51907 -24.4539 0.373779 -17.1258 2.48199 7.3738e-10 -2.72814e-10 -1.79202e-10 1.27146e-09 -5.16452e-10 -3.0024e-10 7.37377e-10 -2.72805e-10 -1.79186e-10 -7.73091 5.47488 -0.417314 7.37383e-10 -2.72824e-10 -1.79202e-10 -2.90554 0.965183 -0.102902 7.3737e-10 -2.72823e-10 -1.79192e-10 -10.2786 0.731801 -0.0259123 7.3738e-10 -2.72824e-10 -1.79192e-10 -2.22167 -0.733487 0.20892 -2.03217e-16 0.0 -3.88251e-19 -9.09895 -17.5045 -6.33888 -0.646003 53.1866 1.36951 -10.5592 -23.5551 -19.774 2.03217e-16 0.0 3.88251e-19 12.3368 -19.7366 6.27505 0.664188 52.1283 -1.17807 5.73024 -15.9774 12.5578
48.8405 81.2174 2.63498 1.8901 0.0199 -9.453 -0.639826 -0.119971 -1.39706 4.01615 1.08546 -0.264045 -6.88777 6.79596 -5.7971 6.38978 -8.65554 -9.80717 -0.0 0.0 0.0 -0.0 0.0 0.0 5.21481e-14 2.64522e-13 -1.8725e-14 41.6429 -6.28695 74.4834 -10.3084 -4.22045 18.489 -1.28382 29.532 4.59397 -1.0478e-09 1.75168e-10 -3.04098e-10 -1.81352e-09 4.0298e-10 -5.02191e-10 -1.0478e-09 1.75165e-10 -3.04111e-10 7.73091 5.47488 0.417314 -1.0478e-09 1.75175e-10 -3.041e-10 2.90554 0.965183 0.102902 -1.04779e-09 1.75167e-10 -3.04096e-10 10.2786 0.731801 0.0259123 -1.0478e-09 1.75168e-10 -3.04095e-10 2.22167 -0.733487 -0.20892 5.21948e-14 2.64519e-13 -1.87397e-14 -11.8268 3.85604 -70.0016 14.1833 -6.8771 -26.1893 0.456624 -18.2848 2.66769 1.47162e-09 6.55087e-10 -6.01449e-10 2.54506e-09 1.03346e-09 -1.02221e-09 1.47162e-09 6.55093e-10 -6.01435e-10 -7.73091 5.47488 -0.417314 1.47163e-09 6.55078e-10 -6.0145e-10 -2.90554 0.965183 -0.102902 1.47162e-09 6.55079e-10 -6.01442e-10 -10.2786 0.731801 -0.0259123 1.47163e-09 6.55078e-10 -6.01443e-10 -2.22167 -0.733487 0.20892 -2.03217e-16 0.0 -3.88251e-19 -10.0295 -18.2575 -6.85679 -0.839161 56.5322 1.58062 -11.8106 -24.8892 -21.2764 2.03217e-16 0.0 3.88251e-19 13.2451 -20.9694 6.72934 0.870747 55.9979 -1.39541 6.47068 -17.3396 13.5871
48.8327 81.1747 2.68011 1.9067 0.0521 -9.4686 -0.736207 -0.134318 -1.31107 3.96116 1.08881 -0.239248 -6.69043 6.7472 -5.77983 6.27139 -8.57704 -9.81692 -0.0 0.0 0.0 -0.0 0.0 0.0 4.34286e-14 3.17957e-13 -2.08506e-14 41.2435 -6.4581 73.8725 -10.2302 -4.18538 18.3288 -1.25253 29.2936 4.54628 -2.08948e-09 3.73006e-10 -5.34687e-10 -3.61764e-09 8.47771e-10 -8.76541e-10 -2.08948e-09 3.73001e-10 -5.347e-10 7.73091 5.47488 0.417314 -2.08948e-09 3.73012e-10 -5.34691e-10 2.90554 0.965183 0.102902 -2.08947e-09 3.73006e-10 -5.34685e-10 10.2786 0.731801 0.0259123 -2.08949e-09 3.73006e-10 -5.34683e-10 2.22167 -0.733487 -0.20892 4.34369e-14 3.17956e-13 -2.0919e-14 -11.5946 3.95216 -69.5526 14.0985 -6.8347 -25.9869 0.443663 -18.0905 2.63661 2.46221e-09 2.0412e-09 -1.19716e-09 4.26412e-09 3.3559e-09 -2.04151e-09 2.46221e-09 2.0412e-09 -1.19715e-09 -7.73091 5.47488 -0.417314 2.46221e-09 2.04119e-09 -1.19717e-09 -2.90554 0.965183 -0.102902 2.4622e-09 2.04119e-09 -1.19716e-09 -10.2786 0.731801 -0.0259123 2.46221e-09 2.04119e-09 -1.19716e-09 -2.22167 -0.733487 0.20892 -2.03217e-16 0.0 -3.88251e-19 -10.0462 -18.1932 -6.88768 -0.8224 56.2873 1.55768 -11.4751 -24.5663 -20.8611 2.03217e-16 0.0 3.88251e-19 13.0436 -20.8279 6.61349 0.849559 55.6605 -1.37487 6.42495 -17.2291 13.5328
